<svg xmlns="http://www.w3.org/2000/svg" width="192" height="192" viewBox="0 0 192 192" role="img" aria-label="Billetera Ferial">
  <rect width="192" height="192" rx="42" fill="#c70036"/>
  <circle cx="50" cy="50" r="15" fill="#F6C17A"/>
  <circle cx="143" cy="54" r="10" fill="#48C0D8"/>
  <circle cx="135" cy="139" r="13" fill="#F47F55"/>
  <path fill="#FFFFFF" d="M100 34c11 25 27 41 52 52-25 11-41 27-52 52-11-25-27-41-52-52 25-11 41-27 52-52Z"/>
  <path fill="#211734" fill-opacity=".28" d="M101 61c6 12 14 20 26 25-12 6-20 14-26 26-5-12-13-20-25-26 12-5 20-13 25-25Z"/>
</svg>
